<?xml version="1.0" encoding="UTF-8" standalone="no"?><!DOCTYPE svg PUBLIC "-//W3C//DTD SVG 1.1//EN" "http://www.w3.org/Graphics/SVG/1.1/DTD/svg11.dtd"><svg width="100%" height="100%" viewBox="0 0 1024 1024" version="1.1" xmlns="http://www.w3.org/2000/svg" xmlns:xlink="http://www.w3.org/1999/xlink" xml:space="preserve" style="fill-rule:evenodd;clip-rule:evenodd;stroke-linejoin:round;stroke-miterlimit:1.41421;"><path d="M512,0c282.58,0 512,229.42 512,512c0,282.58 -229.42,512 -512,512c-282.58,0 -512,-229.42 -512,-512c0,-282.58 229.42,-512 512,-512Zm128,384l0,145.283c-5.171,-0.841 -10.521,-1.283 -16,-1.283c-44.153,0 -80,28.677 -80,64c0,35.323 35.847,64 80,64c44.153,0 80,-28.677 80,-64l0,-272l-320,0l0,273.283c-5.171,-0.841 -10.521,-1.283 -16,-1.283c-44.153,0 -80,28.677 -80,64c0,35.323 35.847,64 80,64c44.153,0 80,-28.677 80,-64l0,-272l192,0Z" style="fill:#fff;"/></svg>