<?xml version="1.0" encoding="UTF-8" standalone="no"?><!DOCTYPE svg PUBLIC "-//W3C//DTD SVG 1.1//EN" "http://www.w3.org/Graphics/SVG/1.1/DTD/svg11.dtd"><svg width="100%" height="100%" viewBox="0 0 256 256" version="1.1" xmlns="http://www.w3.org/2000/svg" xmlns:xlink="http://www.w3.org/1999/xlink" xml:space="preserve" style="fill-rule:evenodd;clip-rule:evenodd;stroke-linejoin:round;stroke-miterlimit:1.41421;"><path d="M169.21,249.21c-12.934,4.402 -26.795,6.79 -41.21,6.79c-70.645,0 -128,-57.355 -128,-128c0,-70.645 57.355,-128 128,-128c70.645,0 128,57.355 128,128c0,14.415 -2.388,28.276 -6.79,41.21l-25.21,-25.21l-32,-16l16,32l31.271,31.271c-3.814,6.69 -8.215,13.003 -13.131,18.869l-130.14,-130.14l-32,-16l16,32l130.14,130.14c-5.866,4.916 -12.179,9.317 -18.869,13.131l-79.271,-79.271l-32,-16l16,32l73.21,73.21Z" style="fill:#e53a25;"/></svg>