<?xml version="1.0" encoding="UTF-8" standalone="no"?><!DOCTYPE svg PUBLIC "-//W3C//DTD SVG 1.1//EN" "http://www.w3.org/Graphics/SVG/1.1/DTD/svg11.dtd"><svg width="100%" height="100%" viewBox="0 0 256 256" version="1.1" xmlns="http://www.w3.org/2000/svg" xmlns:xlink="http://www.w3.org/1999/xlink" xml:space="preserve" style="fill-rule:evenodd;clip-rule:evenodd;stroke-linejoin:round;stroke-miterlimit:1.41421;"><path d="M182.803,12.31c43.259,20.547 73.197,64.65 73.197,115.69c0,70.645 -57.355,128 -128,128c-51.04,0 -95.143,-29.938 -115.69,-73.197l0.534,-4.706c6.996,-0.504 13.956,-1.42 20.844,-2.744l5.001,12.709c7.387,-1.52 14.679,-3.474 21.836,-5.851l-2.023,-13.506c6.627,-2.298 13.112,-4.985 19.423,-8.046l8.12,10.981c6.742,-3.38 13.279,-7.154 19.577,-11.303l-5.45,-12.522c5.807,-3.935 11.376,-8.209 16.68,-12.799l10.684,8.506c5.638,-5.01 10.976,-10.348 15.986,-15.986l-8.506,-10.684c4.59,-5.304 8.864,-10.873 12.799,-16.68l12.522,5.45c4.149,-6.298 7.923,-12.835 11.303,-19.577l-10.981,-8.12c3.061,-6.311 5.748,-12.796 8.046,-19.423l13.506,2.023c2.377,-7.157 4.331,-14.449 5.851,-21.836l-12.709,-5.001c1.324,-6.888 2.24,-13.848 2.744,-20.844l4.706,-0.534Zm4.402,117.016c-7.365,-1.768 -15.045,-1.768 -22.41,0l1.389,13.537c-5.229,1.549 -10.017,4.314 -13.974,8.068l-11.028,-7.972c-5.214,5.495 -9.054,12.145 -11.205,19.408l12.418,5.565c-1.273,5.303 -1.273,10.833 0,16.136l-12.418,5.565c2.151,7.263 5.991,13.913 11.205,19.408l11.028,-7.972c3.957,3.754 8.745,6.519 13.974,8.068l-1.389,13.537c7.365,1.768 15.045,1.768 22.41,0l-1.389,-13.537c5.229,-1.549 10.017,-4.314 13.974,-8.068l11.028,7.972c5.214,-5.495 9.054,-12.145 11.205,-19.408l-12.418,-5.565c1.273,-5.303 1.273,-10.833 0,-16.136l12.418,-5.565c-2.151,-7.263 -5.991,-13.913 -11.205,-19.408l-11.028,7.972c-3.957,-3.754 -8.745,-6.519 -13.974,-8.068l1.389,-13.537Zm-11.205,37.074c5.298,0 9.6,4.302 9.6,9.6c0,5.298 -4.302,9.6 -9.6,9.6c-5.298,0 -9.6,-4.302 -9.6,-9.6c0,-5.298 4.302,-9.6 9.6,-9.6Zm-173.439,-12.821c-1.679,-8.266 -2.561,-16.82 -2.561,-25.579c0,-70.645 57.355,-128 128,-128c8.759,0 17.313,0.882 25.579,2.561c-1.356,82.743 -68.275,149.662 -151.018,151.018Z" style="fill:#e52416;"/></svg>