<?xml version="1.0" encoding="UTF-8" standalone="no"?><!DOCTYPE svg PUBLIC "-//W3C//DTD SVG 1.1//EN" "http://www.w3.org/Graphics/SVG/1.1/DTD/svg11.dtd"><svg width="100%" height="100%" viewBox="0 0 1024 1024" version="1.1" xmlns="http://www.w3.org/2000/svg" xmlns:xlink="http://www.w3.org/1999/xlink" xml:space="preserve" style="fill-rule:evenodd;clip-rule:evenodd;stroke-linejoin:round;stroke-miterlimit:1.41421;"><path d="M512,0c282.58,0 512,229.42 512,512c0,282.58 -229.42,512 -512,512c-282.58,0 -512,-229.42 -512,-512c0,-282.58 229.42,-512 512,-512Zm-32,352l-224,0l0,64l160,0l0,416l64,0l0,-192l64,0l0,192l64,0l0,-416l160,0l0,-64l-288,0Zm32,-160c35.323,0 64,28.677 64,64c0,35.323 -28.677,64 -64,64c-35.323,0 -64,-28.677 -64,-64c0,-35.323 28.677,-64 64,-64Z" style="fill:#fff;"/></svg>