<?xml version="1.0" encoding="UTF-8" standalone="no"?><!DOCTYPE svg PUBLIC "-//W3C//DTD SVG 1.1//EN" "http://www.w3.org/Graphics/SVG/1.1/DTD/svg11.dtd"><svg width="100%" height="100%" viewBox="0 0 256 256" version="1.1" xmlns="http://www.w3.org/2000/svg" xmlns:xlink="http://www.w3.org/1999/xlink" xml:space="preserve" style="fill-rule:evenodd;clip-rule:evenodd;stroke-linejoin:round;stroke-miterlimit:1.41421;"><path d="M201.076,233.076c-20.726,14.448 -45.919,22.924 -73.076,22.924c-70.645,0 -128,-57.355 -128,-128c0,-70.645 57.355,-128 128,-128c70.645,0 128,57.355 128,128c0,27.157 -8.476,52.35 -22.924,73.076l-46.738,-46.738c3.637,-8.034 5.662,-16.952 5.662,-26.338c0,-35.323 -28.677,-64 -64,-64c-5.731,0 -11.287,0.755 -16.574,2.171l31.201,31.202l-0.004,0.004c5.792,5.792 9.377,13.792 9.377,22.623c0,17.661 -14.339,32 -32,32c-8.831,0 -16.831,-3.585 -22.623,-9.377l-0.004,0.004l-31.202,-31.201c-1.416,5.287 -2.171,10.843 -2.171,16.574c0,35.323 28.677,64 64,64c9.386,0 18.304,-2.025 26.338,-5.662l46.738,46.738Z" style="fill:#e53a25;"/></svg>