<?xml version="1.0" encoding="UTF-8" standalone="no"?><!DOCTYPE svg PUBLIC "-//W3C//DTD SVG 1.1//EN" "http://www.w3.org/Graphics/SVG/1.1/DTD/svg11.dtd"><svg width="100%" height="100%" viewBox="0 0 1024 1024" version="1.1" xmlns="http://www.w3.org/2000/svg" xmlns:xlink="http://www.w3.org/1999/xlink" xml:space="preserve" style="fill-rule:evenodd;clip-rule:evenodd;stroke-linejoin:round;stroke-miterlimit:1.41421;"><path d="M512,0c282.58,0 512,229.42 512,512c0,282.58 -229.42,512 -512,512c-282.58,0 -512,-229.42 -512,-512c0,-282.58 229.42,-512 512,-512Zm0,192c141.29,0 256,114.71 256,256c0,141.29 -256,384 -256,384c0,0 -256,-242.71 -256,-384c0,-141.29 114.71,-256 256,-256Zm0,128c70.645,0 128,57.355 128,128c0,70.645 -57.355,128 -128,128c-70.645,0 -128,-57.355 -128,-128c0,-70.645 57.355,-128 128,-128Z" style="fill:#fff;"/></svg>